# xmcd
#
# Track frame offsets:
#	150
#	14724
#	29048
#	44240
#	58494
#	72155
#	86406
#	101487
#	117097
#	131909
#	146552
#	161079
#	174430
#	188630
#	203680
#	217945
#	232339
#	246397
#	259685
#	274168
#
# Disc length: 3845 seconds
#
# Revision: 0
# Processed by: cddbd v1.5.2PL0 Copyright (c) Steve Scherf et al.
# Submitted via: EasyCDDAExtractor 16.0.6.1
#
DISCID=3a0f0314
DTITLE=Συλλογικός δίσκος - Τα ρεμπέτικα Β 1922-1937 11 Α
DYEAR=2010
DGENRE=Ρεμπέτικη
TTITLE0=Ρούκουνας Κώστας ή Σαμιωτάκης - Κοντραμπατζίδες [ζεϊμπ., Κ. Ρούκουνας,
TTITLE0=Αθήνα 1936]
TTITLE1=Βαμβακάρης Μάρκος - Γέρασες και πια δεν σ' αγαπώ [χασάπ., Μ. Βαμβακάρη
TTITLE1=ς, Αθ1937]
TTITLE2=Εσκενάζυ Ρόζα - Αλανιάρα [καρσιλαμάς, Δ. Λαδ/λος ή Μανησαλής, Αθήνα 19
TTITLE2=36]
TTITLE3=Κάβουρας Γιώργος - Όταν σε βλέπω να γυρίζης [χασ. κουλ., Κ. Σκαρβέλης,
TTITLE3=Αθ1936]
TTITLE4=Ρούκουνας Κώστας ή Σαμιωτάκης - Η μάννα σου θα τα πληρώση [κουλουρ., Κ
TTITLE4=Σκαρβέλης, Αθ1935ή36]
TTITLE5=Περπινιάδης Στελλάκης - Μού φαίνεται [ζεϊμπ. απτάλ., Β. Παπάζογλου, Αθ
TTITLE5=ήνα 1935]
TTITLE6=Αμπατζή Ρίτα - Γκαρσόνα [χασάπ., Παν. Τούντας, Αθήνα 1937]
TTITLE7=Δελλιάς Ανέστης - Σούρα και μαστούρα [χασάπ. κουλ., Αν. Δελιάς, Αθήνα 
TTITLE7=5.1936]
TTITLE8=Ρούκουνας Κώστας ή Σαμιωτάκης - Οι γυρολόγοι [Σ. Περιστέρης-Τσάμας, Αθ
TTITLE8=ήνα 1935]
TTITLE9=Καλυβόπουλος Αντώνης - Πέντε μάγκες [χασάπ., Γ. Εϊτζιρίδης, Αθήνα 1936
TTITLE9=]
TTITLE10=Εσκενάζυ Ρόζα - Ασ' τα λόγια [ζεϊμπ. αϊντίνικο, Π. Σκοπελίτης, Αθήνα 
TTITLE10=12.1934]
TTITLE11=Βαμβακάρης Μάρκος-Πανδρά Μαρίτσα - Πλημμύρα [ζεϊμπ. καμηλ., Μ. Βαμβακ
TTITLE11=άρης, Αθήνα 1935]
TTITLE12=Κάβουρας Γιώργος - Παραπονιάρα [χασάπ., Κ. Σκαρβέλης, Αθήνα 1936]
TTITLE13=Αμπατζή Ρίτα - Τι το λες και δεν το κάνεις [χασάπ., Κ. Καρίπης, Αθήνα
TTITLE13=1937]
TTITLE14=Ατραΐδης Δημήτρης - Έγινα αλανιάρης [χασάπ. κουλ., Δημ. Ατραΐδης, Αθή
TTITLE14=να 1936]
TTITLE15=Περπινιάδης Στελλάκης - Όλες οι όμορφες [χασάπ., Στ. Περπινιάδης, Αθή
TTITLE15=να 1937]
TTITLE16=Εσκενάζυ Ρόζα - Ο ξενητευμένος [Δ. Σέμσης-Ρ. Εσκενάζυ, Αθήνα 10.1935]
TTITLE17=Ρούκουνας Κώστας ή Σαμιωτάκης - Στην ξενητειά απελπισμένος [ζεϊμπ. απ
TTITLE17=τάλ., Κ.Ρούκουνας, Αθ.1937]
TTITLE18=Αμπατζή Ρίτα - Μη με στέλνεις μάννα στην Αμερική[συρ.Δ.Σέμσης-Γ.Καμβύ
TTITLE18=σης, Αθ1935]
TTITLE19=Τζουράς Σταύρος - Ο Σταύρακας μέσ' στον τεκέ [Σ. Περιστέρης-Τσάμας, Α
TTITLE19=θήνα 1935]
EXTD=
EXTT0=
EXTT1=
EXTT2=
EXTT3=
EXTT4=
EXTT5=
EXTT6=
EXTT7=
EXTT8=
EXTT9=
EXTT10=
EXTT11=
EXTT12=
EXTT13=
EXTT14=
EXTT15=
EXTT16=
EXTT17=
EXTT18=
EXTT19=
PLAYORDER=
